PathFileType	4	(X/Y/Z)	Patient4_TMGait_0pt7_01_right_07.trc.trc
DataRate	CameraRate	NumFrames	NumMarkers	Units	OrigDataRate	OrigDataStartFrame	OrigNumFrames
89.171974522293	89.171974522293	5	33	mm	89.171974522293	106	       141
Frame#	Time	Sacral			L.Shoulder			Chest			R.Shoulder			Neck			R.ASIS			L.ASIS			R.Thigh.Superior			R.Thigh.Lateral			R.Thigh.Inferior			R.Patella			L.Thigh.Superior			L.Thigh.Lateral			L.Thigh.Inferior			L.Patella			L.Shank.Superior			L.Shank.Lateral			L.Shank.Inferior			R.Shank.Superior			R.Shank.Lateral			R.Shank.Inferior			R.Heel			R.Midfoot.Superior			R.Midfoot.Lateral			R.Toe			L.Heel			L.Midfoot.Lateral			L.Midfoot.Superior			L.Toe			L.Elbow			L.Wrist			R.Elbow			R.Wrist			
		X1	Y1	Z1	X2	Y2	Z2	X3	Y3	Z3	X4	Y4	Z4	X5	Y5	Z5	X6	Y6	Z6	X7	Y7	Z7	X8	Y8	Z8	X9	Y9	Z9	X10	Y10	Z10	X11	Y11	Z11	X12	Y12	Z12	X13	Y13	Z13	X14	Y14	Z14	X15	Y15	Z15	X16	Y16	Z16	X17	Y17	Z17	X18	Y18	Z18	X19	Y19	Z19	X20	Y20	Z20	X21	Y21	Z21	X22	Y22	Z22	X23	Y23	Z23	X24	Y24	Z24	X25	Y25	Z25	X26	Y26	Z26	X27	Y27	Z27	X28	Y28	Z28	X29	Y29	Z29	X30	Y30	Z30	X31	Y31	Z31	X32	Y32	Z32	X33	Y33	Z33	

106	8.707500000000	741.716487942346	1010.566643591883	433.992715611503	936.219670401357	1421.935977523098	234.227496344550	1033.361479242989	1357.632135708318	402.030521162751	951.206050959227	1448.187759560989	569.077489848857	941.035319390855	1494.518062595265	386.522238812659	966.267459244309	946.161819938076	554.928973071304	958.464264384039	964.311502856314	280.496005146234	1057.857781126312	795.637769002897	544.707258039597	1026.625579973676	676.026052297819	628.552221478765	1127.320812772420	644.854230094471	560.296312381570	1162.353554001303	543.079636219911	590.143821434928	988.267435131157	749.596748635046	306.248991340414	885.878901918971	641.485106078975	249.156764022778	964.968188591644	557.053745537136	307.405999601243	958.730320942213	489.994605358503	317.237951040967	932.793465369661	419.727433428976	312.156995852256	838.058821712598	304.867199154695	271.116489469076	896.866333531536	195.632787488965	341.561028364787	1110.497016816747	453.977648654257	595.403368015553	1006.527899676969	377.602579188576	651.842542482898	1033.439777372558	268.984484355626	607.419058352042	870.486959810319	134.855415541918	570.480971915495	1044.015624351081	151.726166183118	630.050247699803	939.547326411122	109.806293616590	654.617318261334	1142.665688369583	75.593948476647	674.023975705267	772.510538873371	38.526370370267	394.652826218081	845.621394999859	34.545993200655	312.478260697664	928.514624281702	97.147046755197	335.889012465423	1056.770644371219	47.261496952905	309.038400759449	964.511890240014	1077.221104804738	108.996331778691	1087.578611109618	847.830400823902	105.611472921817	890.095623359790	1113.920831129116	707.364634137346	1076.608504654816	938.170738359221	669.447057153272	
107	8.718714285714	740.777858795418	1010.204691783348	433.621272461616	935.975639624122	1421.534040000932	234.275602341368	1032.465259050318	1357.222150184527	402.429389890727	949.836894641323	1447.773009945490	569.184672958319	940.311705063877	1494.131927123598	386.505075125060	965.047038946343	945.796747992790	555.112402404772	957.779940681416	964.300900939703	280.537823865871	1056.294891202590	795.581179129562	544.100226686642	1025.614824333505	675.600633287729	627.803685492448	1125.853217106152	644.725620138289	558.886898858891	1162.228987716474	545.081401001602	588.486435462006	985.731890332853	748.735976290168	306.260781528367	881.885414587639	641.531960096042	249.090884437951	959.776646314634	556.313729606241	307.411664258955	952.822321435100	489.383371655660	317.388187336557	926.655063467895	419.363007533883	312.261680258756	831.427153207857	304.951126442225	271.074695742524	889.540806889283	195.435088264726	341.660214382395	1114.748222736459	455.041949443168	594.747836465291	1016.128685777284	373.452215430309	653.090306408773	1048.667434756152	266.117654463881	608.957323255319	893.067747509318	124.027270313875	574.620182279775	1066.467221236419	148.264160330806	631.970849337374	964.259468001846	101.883941038813	657.729162422347	1168.864955941125	76.503286510699	674.643247907300	764.626241878574	38.548631238488	394.636962901417	837.716782696134	34.533982897894	312.505095841428	920.638373043219	97.067028000137	335.960568197199	1048.882119998383	47.116191421411	309.082324846412	971.040171371500	1078.575936113227	107.489029810124	1103.073879354305	854.160687676597	102.952417291672	881.470502180352	1114.853281359020	707.928459706953	1053.877082719369	922.746333315473	679.280228776631	
108	8.729928571429	739.973673021951	1009.869877331364	433.373807015687	935.858462144725	1421.128524099691	234.481830262783	1031.689564941547	1356.777010974708	402.967383204786	948.613948213460	1447.338709542449	569.428979404366	939.687763795941	1493.709500134223	386.644605264766	963.946432308306	945.395475371934	555.450352843449	957.177120733038	964.243895288563	280.714975105790	1054.524289433396	795.081486545233	543.586499038356	1024.070616609972	674.715878731818	627.042532815219	1123.802859881468	643.977228080669	557.476586619960	1161.356577633191	546.589579937098	586.627655429368	983.185835114640	747.847075878484	306.346202294342	877.852313388145	641.580079964657	249.144266389796	954.523398599293	555.590741130112	307.516827062395	946.866170172591	488.788702355346	317.625910265722	920.461820584299	419.024678018038	312.454795702908	824.778037859065	305.050628319273	271.096913782653	882.218327077927	195.259763214593	341.809015633388	1118.392680458194	455.889436018642	593.879985335320	1025.536644718246	369.357468945427	654.157777963510	1063.666862602542	263.661395825125	610.166530421285	915.972938065765	113.953487721848	578.433661090510	1088.893085181273	145.548186898818	633.365358294436	989.246464023866	94.764227805781	660.361376910245	1194.875716743914	78.337995085147	674.450760032041	756.741804821872	38.573029700018	394.619198922888	829.805310646207	34.530473664719	312.536698447887	912.757197000433	96.995065448056	336.032721803918	1040.984017541061	46.980873923598	309.112901681105	976.790430648097	1079.982167082063	106.157286521834	1118.037474637820	861.120500422898	100.759486373918	873.605275068898	1115.832353877193	708.579345828127	1030.338128291715	908.964943347471	688.826777434418	
109	8.741142857143	739.316861360151	1009.527927653386	433.247838402643	935.841810889077	1420.707399028590	234.853014725425	1031.030154249038	1356.283039753728	403.640540670224	947.543206997892	1446.853742071374	569.822495513065	939.160018099645	1493.233159744098	386.954460671036	962.986450119658	944.950925524691	555.923826007538	956.667425397372	964.123828543070	281.018221653503	1052.587038905913	794.139744567505	543.193726855910	1022.052562349721	673.392590787792	626.320733419907	1121.246356065404	642.640523066271	556.120802495370	1159.806011685844	547.606678097142	584.612325612984	980.643110432683	746.914849445752	306.540897734632	873.822872369208	641.618843814835	249.314876558678	949.228916869817	554.871451715520	307.764282673893	940.883373273486	488.204144926859	317.986245551480	914.230758933825	418.701984023433	312.763875998589	818.146065980652	305.152137657470	271.184812580647	874.910739430876	195.097232623002	342.030147531507	1121.436511889539	456.519240314861	592.825531431801	1034.673244558577	365.378132817173	655.034135764475	1078.262508509453	261.657261898644	610.999517211923	938.907588789171	104.737916943554	581.841507204251	1110.998286695892	143.654191536215	634.158310526648	1014.208926707630	88.547705522681	662.441972819247	1220.380497451585	81.160877372635	673.374016104521	748.854052832551	38.595959583591	394.607268656100	821.886448477661	34.536906854537	312.575928025064	904.871623193796	96.927511926473	336.116115389093	1033.075962448283	46.859741976753	309.131048647601	981.776250974076	1081.378606682117	104.987769041914	1132.427843830428	868.680764675624	99.041605450077	866.417078748188	1116.816964076574	709.321604719020	1006.235405531147	896.934852141811	697.998594155786	
110	8.752357142857	738.820000205227	1009.131530876886	433.249323217094	935.892491144473	1420.257085055125	235.394622774107	1030.478223825538	1355.725205495283	404.442593348327	946.626109042083	1446.284699776924	570.375417638689	938.720647265185	1492.684100383890	387.447007548761	962.189198040081	944.452749251248	556.516262970030	956.267799393416	963.925338603338	281.439232558944	1050.539310151569	792.769089604542	542.942747814368	1019.656600064654	671.666587546511	625.688820438482	1118.286504708183	640.763202849058	554.859753762234	1157.669318005068	548.139412381150	582.487033486199	978.124821321140	745.922003993589	306.885911214808	869.853086365014	641.633924354102	249.598418234182	943.926302261252	554.140211502331	308.195740626098	934.907720251193	487.618510069291	318.500843332965	907.990806093396	418.380446788700	313.211893735443	811.571722584142	305.240722968092	271.336029860212	867.632001398195	194.934915415861	342.342174291325	1123.893938328936	456.919467897581	591.613153906772	1043.432663630721	361.551486274311	655.700142403081	1092.250320217582	260.099044706547	611.414795464765	961.508685221022	96.420716213491	584.752448281084	1132.434357259599	142.591617497228	634.295198809711	1038.771324494786	83.265497907994	663.902473265795	1245.010438397644	84.958587282038	671.393412905734	740.960549369795	38.614539539746	394.608910118757	813.959896301876	34.553927220480	312.625049892423	896.982410005127	96.859745908388	336.221242100997	1025.157780715717	46.755366497923	309.139040432688	986.032606452617	1082.713195816496	103.973243147945	1146.200620330243	876.811271223616	97.807646003428	859.810773430882	1117.775167845426	710.155362338157	981.844465907585	886.724483742319	706.709227463562	
